<svg id="Camada_1" data-name="Camada 1" xmlns="http://www.w3.org/2000/svg" viewBox="0 0 956.69285 860.35373"><defs><style>.cls-1,.cls-4{fill:#ff0080;}.cls-1{fill-rule:evenodd;}.cls-2{fill:#03cafd;}.cls-3{fill:#f3a61c;}.cls-5{fill:#fff;}</style></defs><title>logo</title><path class="cls-1" d="M711.00021,586H667V542.20992a22.00079,22.00079,0,1,0-44-.24434V586H578.96558a22.00079,22.00079,0,1,0,.24416,44H623v43.77687a22.00088,22.00088,0,1,0,44,.22292V630h44.00021a22,22,0,1,0,0-44Zm-.91312.136" transform="translate(-21.5145 -69.53846)"/><path class="cls-2" d="M448.192,691H410.13009A18.13009,18.13009,0,0,1,392,672.86991V530.13009A18.13009,18.13009,0,0,1,410.13009,512h36.93564c48.34018,0,88.82188,37.89381,90.56661,86.20249A89.597,89.597,0,0,1,448.192,691ZM428,655h19.54966c26.56223,0,49.57795-19.23048,53.40206-45.516A53.56915,53.56915,0,0,0,448.03359,548H428Z" transform="translate(-21.5145 -69.53846)"/><path class="cls-3" d="M490,434.98731V289.573a18.50038,18.50038,0,1,1,37-.1366v145.6875a18.50038,18.50038,0,1,1-37-.13654Z" transform="translate(-21.5145 -69.53846)"/><path class="cls-3" d="M455.67868,427.11117l-54.23825-75.93371,40.96635-46.81864A18.49982,18.49982,0,1,0,414.562,279.99408L362,340.06474V291.83405a17.90882,17.90882,0,0,0-11.49436-16.86946C337.35759,270.1025,325,279.69554,325,292.17656V438.20635a17.90919,17.90919,0,0,0,11.49336,16.86919C349.64129,459.93886,362,450.3452,362,437.86407V396.25248L376.40711,379.787l49.164,68.82994a18.49977,18.49977,0,1,0,30.10759-21.50579Z" transform="translate(-21.5145 -69.53846)"/><rect class="cls-4" x="526.53721" y="635.3399" width="2.64988" height="343.99031" transform="translate(-437.77719 540.16911) rotate(-44.99937)"/><rect class="cls-4" x="585.59894" y="23.17175" width="2.65006" height="323.00457" transform="translate(19.80895 399.57241) rotate(-45.00033)"/><rect class="cls-4" x="888.69323" y="364.6794" width="2.65006" height="246.78613" transform="translate(-105.95375 702.75185) rotate(-44.99996)"/><rect class="cls-4" x="719.28265" y="715.10291" width="2.65006" height="116.98042" transform="translate(-357.46633 666.58829) rotate(-45)"/><rect class="cls-4" x="144.8081" y="230.71593" width="2.64997" height="349.8265" transform="translate(-265.53527 152.59717) rotate(-44.99969)"/><rect class="cls-4" x="192.46385" y="286.8519" width="2.64997" height="91.16296" transform="translate(-199.82297 164.86605) rotate(-45.00117)"/><rect class="cls-5" x="217.37097" y="323.65015" width="2.65006" height="91.16849" transform="translate(-218.54806 193.24919) rotate(-45)"/><path class="cls-4" d="M416.685,191.15859,375.13983,149.611q-8.93673,3.552-17.63308,7.56257l40.51,40.51239Q407.21746,194.1375,416.685,191.15859Z" transform="translate(-21.5145 -69.53846)"/><path class="cls-5" d="M366.54976,211.85885,327.42982,172.736q-8.35074,4.82973-16.40892,10.09385l38.53767,38.53793Q357.88984,216.35954,366.54976,211.85885Z" transform="translate(-21.5145 -69.53846)"/><path class="cls-3" d="M385.83423,202.6759l-39.91979-39.91979q-4.16187,2.09664-8.26648,4.29636l39.54187,39.54187Q381.47572,204.56807,385.83423,202.6759Z" transform="translate(-21.5145 -69.53846)"/><path class="cls-4" d="M261.73185,300.2029a312.48552,312.48552,0,0,0-17.68211,25.88684Q252.26454,312.69618,261.73185,300.2029Z" transform="translate(-21.5145 -69.53846)"/><path class="cls-4" d="M244.04974,326.08974c-2.2,3.59749-4.35335,7.22625-6.41367,10.91172C239.69639,333.316,241.84974,329.68723,244.04974,326.08974Z" transform="translate(-21.5145 -69.53846)"/><path class="cls-3" d="M203.00146,434.47678q2.56614-14.6669,6.48072-28.84773c.02067-.08269.044-.16564.06732-.24833q.93939-3.401,1.95669-6.7757c.06467-.21229.12934-.42457.19666-.6419q3.14851-10.38139,6.99328-20.45165l-40.54631-40.54632a360.94063,360.94063,0,0,0-19.43713,53.26447l44.28347,44.28347A.13183.13183,0,0,0,203.00146,434.47678Z" transform="translate(-21.5145 -69.53846)"/><path class="cls-2" d="M209.48218,405.62905q-3.90545,14.17037-6.48072,28.84773Q205.57158,419.80989,209.48218,405.62905Z" transform="translate(-21.5145 -69.53846)"/><path class="cls-2" d="M218.69613,377.51147q-3.84344,10.06257-6.99328,20.45165Q214.85495,387.58173,218.69613,377.51147Z" transform="translate(-21.5145 -69.53846)"/><path class="cls-4" d="M148.17652,477.12318l49.90471,49.90762a310.02145,310.02145,0,0,0,29.66824,99.30639l-74.125-74.12744a365.06647,365.06647,0,0,1-5.65755-64.00789c0-3.45013.067-7.0606.20964-11.07868m-2.39426-6.14308c-.27431,5.71479-.46566,11.445-.46566,17.22176a366.25231,366.25231,0,0,0,5.84651,65.29407l87.13049,87.13314a308.891,308.891,0,0,1-37.69408-114.82641L145.78226,470.9801Z" transform="translate(-21.5145 -69.53846)"/><path class="cls-2" d="M697.8216,735.68178l37.90611,37.91141a366.90654,366.90654,0,0,0,28.17988-24.82567l-37.60612-37.61114A313.43031,313.43031,0,0,1,697.8216,735.68178Z" transform="translate(-21.5145 -69.53846)"/><path class="cls-4" d="M644.3862,768.53063l39.45919,39.45917a364.00314,364.00314,0,0,0,36.76223-23.01394l-38.21169-38.21169A311.39458,311.39458,0,0,1,644.3862,768.53063Z" transform="translate(-21.5145 -69.53846)"/><path class="cls-4" d="M818.0488,430.71233,871,483.66485l.01034.66893c.02332,1.28777.044,2.57528.044,3.86808a358.69415,358.69415,0,0,1-29.461,143.0463l-36.80625-36.80228c2.75629-7.6092,5.2176-15.32442,7.32192-22.96226a314.25441,314.25441,0,0,0,5.9398-140.77129m-4.31921-8.06851a311.58461,311.58461,0,0,1-4.17206,148.13589q-3.41647,12.39216-7.83687,24.34412l40.74535,40.743a362.707,362.707,0,0,0,31.24172-147.66493c0-1.88938-.04664-3.76843-.07261-5.65251l-59.90553-59.90553Z" transform="translate(-21.5145 -69.53846)"/><path class="cls-3" d="M831.89326,657.73661l-39.67119-39.6765a310.851,310.851,0,0,1-18.59326,34.41756l38.44966,38.44968A363.86706,363.86706,0,0,0,831.89326,657.73661Z" transform="translate(-21.5145 -69.53846)"/><path class="cls-5" d="M379.06888,811.91354a10.6003,10.6003,0,0,1-5.96312-13.75361h0a10.59305,10.59305,0,0,1,13.75333-5.98883h0a10.61639,10.61639,0,0,1,5.96312,13.75334h0a10.60065,10.60065,0,0,1-9.86088,6.73435h0A10.50014,10.50014,0,0,1,379.06888,811.91354Z" transform="translate(-21.5145 -69.53846)"/><path class="cls-2" d="M337.11473,791.98452a10.58024,10.58024,0,0,1-4.08408-14.41592h0a10.58565,10.58565,0,0,1,14.41856-4.08407h0a10.59062,10.59062,0,0,1,4.08143,14.42121h0a10.586,10.586,0,0,1-9.25,5.42989h0A10.45431,10.45431,0,0,1,337.11473,791.98452Z" transform="translate(-21.5145 -69.53846)"/><path class="cls-5" d="M298.2792,766.64655a10.62489,10.62489,0,0,1-2.11969-14.84049h0A10.60587,10.60587,0,0,1,311,749.71472v-.031a10.59446,10.59446,0,0,1,2.12209,14.84579h0a10.53211,10.53211,0,0,1-8.48381,4.23938h0A10.52558,10.52558,0,0,1,298.2792,766.64655Z" transform="translate(-21.5145 -69.53846)"/><path class="cls-2" d="M262.98464,736.38065a10.59845,10.59845,0,0,1-.132-15.00109h0a10.619,10.619,0,0,1,15.00083-.10336h0a10.61582,10.61582,0,0,1,.132,14.97485h0a10.606,10.606,0,0,1-7.57793,3.17848h0A10.52551,10.52551,0,0,1,262.98464,736.38065Z" transform="translate(-21.5145 -69.53846)"/><path class="cls-5" d="M232.10785,701.71477h0a10.566,10.566,0,0,1,1.85839-14.86646h0a10.56512,10.56512,0,0,1,14.86618,1.85307h0a10.60031,10.60031,0,0,1-1.85307,14.87176h0a10.48259,10.48259,0,0,1-6.49608,2.22571h0A10.625,10.625,0,0,1,232.10785,701.71477Z" transform="translate(-21.5145 -69.53846)"/><path class="cls-2" d="M206.10971,663.25979a10.5718,10.5718,0,0,1,3.81771-14.49357h0a10.60107,10.60107,0,0,1,14.49622,3.81481h0a10.60283,10.60283,0,0,1-3.84343,14.49383h0a10.3968,10.3968,0,0,1-5.30055,1.4338h0A10.59461,10.59461,0,0,1,206.10971,663.25979Z" transform="translate(-21.5145 -69.53846)"/><path class="cls-2" d="M431.3082,846.68411A367.04076,367.04076,0,0,1,159.0233,596.73519l5.06521-1.566A361.733,361.733,0,0,0,432.434,841.5052Z" transform="translate(-21.5145 -69.53846)"/><path class="cls-2" d="M395.73912,780.98507,382.814,775.30129A315.29419,315.29419,0,0,1,251.59666,666.80056l4.04008-3.3958.55391.60824A310.00987,310.00987,0,0,0,384.887,770.37867l.45028.20062Z" transform="translate(-21.5145 -69.53846)"/><polygon class="cls-4" points="178.2 448.008 124.62 394.428 178.2 448.008 178.2 448.008"/><path class="cls-2" d="M198.68443,503.08369c-.02067-.48129-.03366-.96788-.05433-1.44917-.083-1.95166-.16326-3.90306-.21229-5.85976q-.09342-3.77346-.09567-7.5729c0-5.14525.163-10.24915.41132-15.33238l-47.868-47.87062a363.16212,363.16212,0,0,0-4.73128,38.96755l53.58012,53.58011Q199.0389,510.35659,198.68443,503.08369Z" transform="translate(-21.5145 -69.53846)"/><path class="cls-2" d="M198.76208,472.89545l-.02862-.026c-.24833,5.08323-.41132,10.18713-.41132,15.33238C198.32214,483.067,198.50315,477.97338,198.76208,472.89545Z" transform="translate(-21.5145 -69.53846)"/><path class="cls-2" d="M198.68443,503.08369q.34547,7.27542,1.0299,14.46283Q199.0389,510.35659,198.68443,503.08369Z" transform="translate(-21.5145 -69.53846)"/><path class="cls-4" d="M550.29634,128.96137a357.66022,357.66022,0,0,1,202.23121,91.58455l-22.60765,44.5008a316.21613,316.21613,0,0,0-116.52681-72.98995l-63.09675-63.0954m-7.13824-3.38944,68.78818,68.78555a311.88191,311.88191,0,0,1,118.68283,75.14488l25.17233-49.553A362.76989,362.76989,0,0,0,543.1581,125.57193Z" transform="translate(-21.5145 -69.53846)"/><path class="cls-4" d="M872.14434,454.5558a363.22157,363.22157,0,0,0-116.3429-234.60646l-25.17233,49.553a311.82819,311.82819,0,0,1,72.73233,116.27055Z" transform="translate(-21.5145 -69.53846)"/><path class="cls-5" d="M631.80993,774.40073a309.01444,309.01444,0,0,1-64.4269,19.54844L495,721.56852v30.80682L540.46337,797.839l46.37984,46.37984a361.55019,361.55019,0,0,0,84.98511-29.8Z" transform="translate(-21.5145 -69.53846)"/><path class="cls-2" d="M509.1075,176.98754a311.53225,311.53225,0,0,1,65.66979,6.98423l-60.00764-60.01029c-1.8873-.0284-3.76954-.06982-5.66215-.06982A364.41248,364.41248,0,0,0,395.317,142.01381L426,172.69686v.00239l92,92v-30.862l-53.622-53.62073A310.99839,310.99839,0,0,1,509.1075,176.98754Z" transform="translate(-21.5145 -69.53846)"/><path class="cls-4" d="M294.84347,193.64588,203,101.80505v30.80416l74.508,74.508a366.00353,366.00353,0,0,0-88.40659,107.0929l39.41517,39.41253q4.07241-8.4243,8.61075-16.57986c.0053-.01538.01564-.02571.02067-.04135,2.06033-3.68547,4.21368-7.31423,6.41367-10.91172A312.48318,312.48318,0,0,1,261.2438,300.2029c.17772-.23686.36239-.46679.54168-.70606,1.18775-1.585,2.3683-3.17042,3.63708-4.69137,1.12121-1.34405,2.26646-2.79687,3.43575-4.19922q2.81061-3.4125,5.71452-6.73965c.42723-.48925.85154-.98352,1.2838-1.47011q3.14056-3.556,6.38769-7.01661c.23535-.251.46062-.50461.69862-.75294q7.24041-7.66381,14.9881-14.82247c.67556-.62388,1.36411-1.2345,2.04734-1.85572q2.77167-2.51963,5.60588-4.97961c.88254-.76619,1.77276-1.52179,2.6659-2.27765q2.62419-2.22066,5.29525-4.38435c.94483-.76619,1.88939-1.53212,2.84189-2.28533,1.86341-1.47276,3.7475-2.91425,5.64483-4.3454.85657-.64719,1.70545-1.30446,2.57262-1.94636,2.751-2.02905,5.53086-4.02975,8.35182-5.97346Z" transform="translate(-21.5145 -69.53846)"/><rect class="cls-3" x="776.02298" y="523.29819" width="2.64988" height="265.79721" transform="translate(-257.83577 672.3251) rotate(-45)"/><path class="cls-5" d="M739.3305,697.68237l37.66281,37.66282q3.82793-4.13841,7.51089-8.40615l-37.73544-37.74073C744.33078,692.06617,741.86151,694.90541,739.3305,697.68237Z" transform="translate(-21.5145 -69.53846)"/><path class="cls-2" d="M801.0891,706.44074,763.0224,668.369c-3.29723,4.62235-6.73435,9.136-10.26982,13.562l37.8287,37.8311Q795.97752,713.22055,801.0891,706.44074Z" transform="translate(-21.5145 -69.53846)"/><path class="cls-4" d="M424.7782,790.37871q2.55061.70644,5.31353,1.43115l.29259.07633.3623.09594c2.319.60559,4.64831,1.17354,6.99566,1.72878l.99385.229.8852.2046c2.17165.4956,4.34565.97451,6.5377,1.42983.4736.09726.94986.189,1.42611.28093l.94484.18366c6.35641,1.2565,12.81911,2.328,19.27121,3.19252,1.53239.207,3.06451.41159,4.60962.5979,1.53213.18261,3.07485.339,4.61466.49561l1.23715.136c.54861.062,1.09748.123,1.66411.17862.45558.04135.91117.07633,1.36913.11238l.85684.06864c1.17248.10495,2.34231.2046,3.51718.29259,3.37753.25867,6.1831.43729,8.84636.56424l.75056.02969.7222.02729c1.7081.07236,3.41117.141,5.12192.19268l45.87761,45.87655a366.51085,366.51085,0,0,1-37.4765,1.94371c-8.57974,0-17.43378-.32492-26.33182-.96682l-58.402-58.40176m-9.255-5.50648,66.47927,66.47954c9.082.67821,18.25192,1.0458,27.5096,1.0458A368.20965,368.20965,0,0,0,552.763,849.83l-50.5262-50.52593c-.09833,0-.19665-.0053-.29763-.0053-1.95138-.05168-3.89272-.12933-5.83882-.21229-.48924-.02067-.98352-.036-1.47276-.057-2.93226-.13967-5.84651-.33632-8.75572-.55894q-1.74719-.132-3.48379-.28994c-.7402-.062-1.48283-.1137-2.2204-.181-.96284-.09329-1.91535-.21228-2.8729-.31061-1.52709-.1553-3.05418-.31061-4.57066-.49189-1.55307-.18631-3.09288-.3933-4.6356-.60029q-9.61614-1.28883-19.04622-3.15754c-.78156-.1553-1.56843-.30027-2.35-.46088q-3.25347-.67542-6.48072-1.41816c-.62387-.145-1.24748-.28464-1.86871-.42961-2.319-.54888-4.62764-1.11285-6.926-1.71341-.233-.057-.46327-.12429-.69623-.18128-5.11159-1.34051-10.18952-2.76927-15.19748-4.36368Z" transform="translate(-21.5145 -69.53846)"/></svg>